<?xml version="1.0" encoding="utf-8"?>
<!-- Generator: Adobe Illustrator 19.1.0, SVG Export Plug-In . SVG Version: 6.00 Build 0)  -->
<svg version="1.1" id="Layer_1" xmlns="http://www.w3.org/2000/svg" xmlns:xlink="http://www.w3.org/1999/xlink" x="0px" y="0px"
	 viewBox="0 0 58 32" style="enable-background:new 0 0 58 32;" xml:space="preserve">
<style type="text/css">
	.st0{fill:#FFFFFF;}
</style>
<g>
	<path class="st0" d="M52,26.1l6.1,0l-6.4-5.7c0.4-1.4,0.6-2.9,0.6-4.4c0-8.8-7.1-16-15.9-16S20.5,7.2,20.5,16s7.1,16,15.9,16
		c4.3,0,8.2-1.7,11-4.5l-2.9-2.6c-2.1,2-5,3.2-8.1,3.2c-6.6,0-12-5.4-12-12.1s5.4-12.1,12-12.1c6.6,0,12,5.4,12,12.1
		c0,2-0.5,4-1.4,5.6L52,26.1z"/>
	<path class="st0" d="M38,19.1h6.1c0.4-1,0.6-2,0.6-3.1c0-4.7-3.8-8.5-8.4-8.5c-4.6,0-8.4,3.8-8.4,8.5c0,4.7,3.8,8.5,8.4,8.5
		c2,0,3.9-0.7,5.4-2L38,19.1z"/>
	<g>
		<rect x="0.1" y="13.9" class="st0" width="15.9" height="4.1"/>
		<rect x="6" y="8" class="st0" width="4.1" height="16.1"/>
	</g>
</g>
</svg>
