<?xml version="1.0" encoding="utf-8"?>
<!-- Generator: Adobe Illustrator 19.1.0, SVG Export Plug-In . SVG Version: 6.00 Build 0)  -->
<svg version="1.1" id="Layer_1" xmlns="http://www.w3.org/2000/svg" xmlns:xlink="http://www.w3.org/1999/xlink" x="0px" y="0px"
	 viewBox="0 0 64 54" style="enable-background:new 0 0 64 54;" xml:space="preserve">
<style type="text/css">
	.st0{fill:#FFFFFF;}
</style>
<path class="st0" d="M53,43.7l10.1,0l-10.6-9.4c0.6-2.3,1-4.7,1-7.2c0-14.5-11.8-26.3-26.3-26.3S0.9,12.5,0.9,27.1
	s11.8,26.3,26.3,26.3c7.1,0,13.5-2.8,18.3-7.4l-4.9-4.3c-3.5,3.2-8.2,5.2-13.4,5.2c-11,0-19.8-8.9-19.8-19.8S16.2,7.2,27.2,7.2
	c11,0,19.8,8.9,19.8,19.8c0,3.3-0.8,6.5-2.3,9.3L53,43.7z"/>
<path class="st0" d="M29.9,32.2h10.2c0.6-1.6,1-3.3,1-5.2c0-7.7-6.2-13.9-13.9-13.9c-7.7,0-13.9,6.2-13.9,13.9
	c0,7.7,6.2,13.9,13.9,13.9c3.4,0,6.5-1.2,8.9-3.2L29.9,32.2z"/>
</svg>
