<?xml version="1.0" encoding="utf-8"?>
<!-- Generator: Adobe Illustrator 19.2.0, SVG Export Plug-In . SVG Version: 6.00 Build 0)  -->
<svg version="1.1" id="Layer_1" xmlns="http://www.w3.org/2000/svg" xmlns:xlink="http://www.w3.org/1999/xlink" x="0px" y="0px"
	 viewBox="0 0 100 100" style="enable-background:new 0 0 100 100;" xml:space="preserve">
<style type="text/css">
	.st0{fill:url(#SVGID_1_);}
	.st1{fill:#FFFFFF;}
</style>
<linearGradient id="SVGID_1_" gradientUnits="userSpaceOnUse" x1="50" y1="0.75" x2="50" y2="99.5051">
	<stop  offset="0" style="stop-color:#F3911F"/>
	<stop  offset="1" style="stop-color:#F47821"/>
</linearGradient>
<rect y="0" class="st0" width="100" height="100"/>
<g>
	<g>
		<path class="st1" d="M79,70.3l12.7,0L78.4,58.4c0.8-2.9,1.2-5.9,1.2-9c0-18.3-14.8-33.1-33.1-33.1S13.5,31.1,13.5,49.3
			s14.8,33.1,33.1,33.1c8.9,0,17-3.5,23-9.3l-6.1-5.4c-4.4,4.1-10.3,6.5-16.8,6.5c-13.8,0-24.9-11.2-24.9-24.9s11.2-24.9,24.9-24.9
			c13.8,0,24.9,11.2,24.9,24.9c0,4.2-1,8.2-2.9,11.7L79,70.3z"/>
		<path class="st1" d="M50,55.8h12.8c0.8-2,1.3-4.2,1.3-6.5c0-9.7-7.8-17.5-17.5-17.5c-9.7,0-17.5,7.8-17.5,17.5
			c0,9.7,7.8,17.5,17.5,17.5c4.3,0,8.2-1.5,11.2-4.1L50,55.8z"/>
	</g>
</g>
</svg>
